HIERARCHY
ROOT Hips
{
	OFFSET 0.00000 0.00000 0.00000
	CHANNELS 6 Xposition Yposition Zposition Yrotation Zrotation Xrotation 
	JOINT Lumbar
	{
		OFFSET 0 0 0
		CHANNELS 3 Zrotation Xrotation Yrotation
		JOINT Neck
		{
			OFFSET 0.00 0.2701 0.00
			CHANNELS 3 Zrotation Xrotation Yrotation
			End Site
			{
				OFFSET 0.00 0.1379 0.00
			}
		}
		JOINT RightShoulder
		{
			OFFSET 0.0119 0.2289 0.1181
			CHANNELS 3 Zrotation Xrotation Yrotation
			JOINT RightElbow
			{
				OFFSET 0.00 -0.1475 0.00
				CHANNELS 2 Zrotation Yrotation
				JOINT RightWrist
				{
					OFFSET 0.00 -0.1605 0.00
					CHANNELS 2 Zrotation Xrotation
					End Site
					{
						OFFSET 0.0040 -0.1068 0.0006
					}
				}
			}
		}
		JOINT LeftShoulder
		{
			OFFSET 0.0119 0.2289 -0.1181
			CHANNELS 3 Zrotation Xrotation Yrotation
			JOINT LeftElbow
			{
				OFFSET 0.00 -0.1475 0.00
				CHANNELS 2 Zrotation Yrotation
				JOINT LeftWrist
				{
					OFFSET 0.00 -0.1605 0.00
					CHANNELS 2 Zrotation Xrotation
					End Site
					{
						OFFSET 0.0040 -0.1068 -0.0006
					}
				}
			}
		}
	}
	JOINT RightHip
	{
		OFFSET 0.0316 -0.0424 0.0458
		CHANNELS 3 Zrotation Xrotation Yrotation
		JOINT RightKnee
		{
			OFFSET 0.00 -0.2438 0.00
			CHANNELS 1 Zrotation
			JOINT RightAnkle
			{
				OFFSET 0.00 -0.2449 0.00
				CHANNELS 3 Zrotation Xrotation Yrotation
				End Site
				{
					OFFSET 0.1237 -0.0542 0.0051
				}
			}
		}
	}
	JOINT LeftHip
	{
		OFFSET 0.0316 -0.0424 -0.0458
		CHANNELS 3 Zrotation Xrotation Yrotation
		JOINT LeftKnee
		{
			OFFSET 0.00 -0.2438 0.00
			CHANNELS 1 Zrotation
			JOINT LeftAnkle
			{
				OFFSET 0.00 -0.2449 0.00
				CHANNELS 3 Zrotation Xrotation Yrotation
				End Site
				{
					OFFSET 0.1237 -0.0542 -0.0051
				}
			}
		}
	}
}
MOTION
Frames: 30
Frame Time: 0.02
-0.00013 1e-05 -4e-05 24.7196 -23.79355 -2.51891 46.71219 -1.1175 -3.98044 -15.47463 5.91547 -0.6188 -19.62281 -4.06386 -24.09347 19.13366 101.20058 12.88157 1.71272 -23.59723 4.38254 21.54249 27.70273 -117.53188 21.31923 -3.50572 39.63403 -3.61717 -0.42275 -21.67158 -8.27007 -4.47526 -4.52859 44.7856 4.72323 -1.09263 -25.87138 -7.71172 3.23458 3.86245
-6e-05 0 3e-05 24.72122 -23.79162 -2.51809 46.68578 -1.11686 -3.97555 -15.48129 5.91673 -0.61917 -19.59554 -4.05766 -24.05343 19.13449 101.18747 12.86771 1.72302 -23.56897 4.42246 21.47895 27.67956 -117.49572 21.30329 -3.50559 39.62503 -3.75387 -1.17222 -21.69002 -8.19536 -4.43564 -4.50256 44.78976 4.82956 -0.66755 -25.89132 -7.68914 3.19363 3.8411
1e-05 -1e-05 9e-05 24.72287 -23.78969 -2.51728 46.65941 -1.11623 -3.97068 -15.48795 5.91801 -0.61953 -19.56835 -4.0515 -24.01344 19.1353 101.17441 12.85389 1.7333 -23.54092 4.46293 21.413 27.65638 -117.45495 21.28609 -3.50471 39.61605 -3.89027 -1.92006 -21.70847 -8.12085 -4.39612 -4.47659 44.79388 4.93577 -0.24295 -25.91123 -7.66661 3.15275 3.81977
7e-05 -2e-05 0.00016 24.72449 -23.78777 -2.51646 46.63307 -1.11559 -3.96581 -15.49459 5.91927 -0.6199 -19.54116 -4.04532 -23.97352 19.13613 101.16134 12.84007 1.74357 -23.51276 4.50285 21.34914 27.63327 -117.41798 21.26994 -3.50443 39.60707 -4.02657 -2.66735 -21.72686 -8.04636 -4.35663 -4.45065 44.79801 5.04182 0.18097 -25.93112 -7.64411 3.11191 3.79848
0.00014 -3e-05 0.00023 24.72608 -23.78585 -2.51565 46.60673 -1.11494 -3.96091 -15.50122 5.92051 -0.62027 -19.5139 -4.0391 -23.93355 19.137 101.14822 12.82623 1.75387 -23.48432 4.54191 21.28889 27.61021 -117.38781 21.25567 -3.50527 39.59809 -4.1631 -3.41595 -21.74522 -7.9717 -4.31704 -4.42465 44.8022 5.14791 0.60501 -25.95103 -7.62156 3.07103 3.77717
0.00021 -4e-05 0.0003 24.72787 -23.78391 -2.51483 46.58031 -1.11434 -3.95609 -15.50795 5.92187 -0.62064 -19.48685 -4.03306 -23.89353 19.13765 101.13529 12.81244 1.76411 -23.45708 4.58533 21.21113 27.58675 -117.32507 21.23239 -3.50081 39.5891 -4.29923 -4.16214 -21.76386 -7.89748 -4.27767 -4.39875 44.80619 5.25435 1.03073 -25.97091 -7.59906 3.03017 3.75581
0.00027 -5e-05 0.00037 24.72924 -23.78201 -2.51401 46.55405 -1.11364 -3.95114 -15.51447 5.92298 -0.621 -19.4594 -4.02666 -23.85368 19.13875 101.122 12.79856 1.77444 -23.42752 4.62007 21.168 27.56414 -117.32668 21.22692 -3.5068 39.58012 -4.43604 -4.91246 -21.78191 -7.82246 -4.23791 -4.37268 44.81055 5.36 1.45274 -25.99084 -7.5765 2.9893 3.73457
0.00034 -6e-05 0.00043 24.73101 -23.78009 -2.5132 46.52766 -1.11304 -3.9463 -15.52117 5.92432 -0.62137 -19.43232 -4.02062 -23.81366 19.13941 101.10901 12.78476 1.7847 -23.39999 4.66255 21.09419 27.54073 -117.27124 21.20564 -3.50353 39.57117 -4.57219 -5.65878 -21.80052 -7.74817 -4.19851 -4.34677 44.81461 5.46632 1.87788 -26.01074 -7.554 2.94844 3.71323
0.00041 -7e-05 0.0005 24.73321 -23.77804 -2.51239 46.50104 -1.11254 -3.94161 -15.52817 5.92595 -0.62176 -19.40569 -4.01488 -23.77345 19.13964 101.0965 12.77108 1.79485 -23.37536 4.71567 20.97741 27.51638 -117.13613 21.16237 -3.48732 39.56209 -4.70774 -6.40141 -21.81977 -7.67477 -4.15952 -4.32104 44.81814 5.57379 2.30836 -26.03055 -7.53155 2.90756 3.69171
0.00047 -8e-05 0.00057 24.73279 -23.77645 -2.51155 46.47553 -1.1114 -3.93609 -15.53368 5.92593 -0.62204 -19.37648 -4.00699 -23.73438 19.14269 101.0816 12.75677 1.80556 -23.3353 4.71112 21.09139 27.49753 -117.42942 21.23759 -3.54068 39.55327 -4.84739 -7.16892 -21.83522 -7.59624 -4.1181 -4.29421 44.82423 5.67563 2.71269 -26.0507 -7.50874 2.86669 3.67105
0.00055 -0.0001 0.00064 24.73797 -23.77408 -2.51079 46.4478 -1.11163 -3.93231 -15.54216 5.92941 -0.62255 -19.35269 -4.00391 -23.69288 19.13956 101.0715 12.74375 1.81514 -23.32701 4.8259 20.72933 27.46703 -116.83856 21.06809 -3.45049 39.54419 -4.97791 -7.88148 -21.85874 -7.52856 -4.08183 -4.26975 44.82523 5.78868 3.16915 -26.07026 -7.48672 2.82587 3.64869
0.00065 -0.00012 0.00069 24.75835 -23.76813 -2.51004 46.413 -1.11561 -3.93359 -15.55998 5.94243 -0.62365 -19.34404 -4.01197 -23.64495 19.12113 101.07619 12.73442 1.82126 -23.41299 5.29074 18.9594 27.40487 -113.63771 20.17751 -2.93607 39.53256 -5.08715 -8.4626 -21.90431 -7.49067 -4.05978 -4.25137 44.80996 5.93852 3.7955 -26.08729 -7.4665 2.78454 3.6208
0.00076 -0.00014 0.00073 24.78451 -23.76184 -2.50946 46.37614 -1.12097 -3.93668 -15.58039 5.959 -0.62498 -19.34061 -4.02531 -23.59462 19.09617 101.08513 12.72632 1.82638 -23.52943 5.87111 16.73111 27.33114 -109.58563 19.051 -2.28351 39.5213 -5.18649 -8.98505 -21.9581 -7.46368 -4.04291 -4.23545 44.79035 6.09857 4.46929 -26.10395 -7.44714 2.74337 3.59137
0.00087 -0.00016 0.00078 24.80801 -23.7564 -2.50884 46.34089 -1.12571 -3.93864 -15.59903 5.97399 -0.6262 -19.33485 -4.03751 -23.54511 19.07312 101.09139 12.71758 1.83211 -23.62751 6.384 14.77781 27.26221 -106.03982 18.06398 -1.71347 39.51072 -5.28794 -9.52164 -22.00806 -7.43163 -4.02359 -4.21866 44.77382 6.24995 5.10378 -26.12128 -7.4276 2.70256 3.56322
0.00097 -0.00018 0.00083 24.83122 -23.74724 -2.50778 46.30288 -1.13041 -3.94147 -15.62083 5.9888 -0.62743 -19.32965 -4.04415 -23.49639 19.05456 101.1019 12.7093 1.83692 -23.74533 6.96083 12.53858 27.19435 -101.97762 16.93761 -1.05819 39.49536 -5.39959 -10.11068 -22.05804 -7.39995 -4.00461 -4.20076 44.75122 6.41809 5.81305 -26.13622 -7.40712 2.65991 3.53263
0.00109 -0.00021 0.00087 24.85696 -23.74671 -2.50803 46.27003 -1.13554 -3.94347 -15.63582 6.0049 -0.62871 -19.32363 -4.06391 -23.44591 19.02505 101.10321 12.70023 1.84377 -23.82846 7.43127 10.79063 27.12258 -98.80237 16.04889 -0.54976 39.49153 -5.4875 -10.57694 -22.11044 -7.37023 -3.98627 -4.18582 44.74195 6.55407 6.3781 -26.1564 -7.38884 2.62111 3.50673
0.00124 -0.00025 0.00089 24.88365 -23.76198 -2.50898 46.25227 -1.14127 -3.93782 -15.6383 6.02297 -0.63004 -19.32145 -4.11618 -23.38655 18.96778 101.08956 12.68984 1.85318 -23.81489 7.58599 10.4703 27.03433 -98.1659 15.84394 -0.46199 39.50765 -5.51383 -10.71648 -22.16382 -7.34171 -3.96723 -4.17803 44.75691 6.59604 6.53019 -26.18892 -7.37607 2.59321 3.49432
0.00139 -0.0003 0.00092 24.91368 -23.78759 -2.51186 46.23929 -1.14742 -3.93214 -15.6323 6.04237 -0.63147 -19.31668 -4.18195 -23.32593 18.89987 101.0643 12.67846 1.8652 -23.76402 7.62963 10.6639 26.94455 -98.46673 15.89017 -0.52915 39.53809 -5.5165 -10.7356 -22.22055 -7.31502 -3.94883 -4.1732 44.7886 6.60585 6.53595 -26.22759 -7.36555 2.56912 3.48663
0.00153 -0.00035 0.00095 24.94499 -23.81358 -2.51562 46.2245 -1.15357 -3.92976 -15.62601 6.06164 -0.63284 -19.3085 -4.24305 -23.2695 18.83588 101.03693 12.66671 1.87829 -23.7261 7.71843 10.65461 26.8605 -98.42566 15.84359 -0.53908 39.56909 -5.52881 -10.81024 -22.27748 -7.28858 -3.93099 -4.16732 44.8208 6.63208 6.61089 -26.26431 -7.3542 2.54308 3.47669
0.00174 -0.00037 0.00093 24.96406 -23.81748 -2.51161 46.20994 -1.15904 -3.91379 -15.6384 6.07899 -0.6341 -19.32068 -4.298 -23.19956 18.77429 101.04118 12.65824 1.88218 -23.70664 7.82886 10.51686 26.75303 -98.02931 15.70622 -0.49322 39.56815 -5.54485 -10.87644 -22.32529 -7.25817 -3.90994 -4.16037 44.81609 6.6508 6.67671 -26.29559 -7.34198 2.51797 3.46718
0.00179 -0.00047 0.00103 25.01015 -23.87065 -2.52471 46.19379 -1.16588 -3.92583 -15.60846 6.10066 -0.63581 -19.28874 -4.36907 -23.15516 18.70683 100.97639 12.64296 1.9054 -23.63886 7.87247 10.75334 26.69633 -98.56981 15.81121 -0.5963 39.63979 -5.54843 -10.9362 -22.39548 -7.23605 -3.8954 -4.15621 44.89545 6.67769 6.72552 -26.34199 -7.33222 2.49179 3.45788
0.00148 -0.00071 0.00143 25.12317 -24.05039 -2.58056 46.19118 -1.17755 -4.01721 -15.47585 6.13326 -0.63725 -19.1442 -4.48 -23.20105 18.61229 100.72672 12.60657 1.9853 -23.45072 7.70482 12.08746 26.76056 -101.79532 16.60811 -1.12501 39.8856 -5.51595 -10.973 -22.50386 -7.23892 -3.90091 -4.16016 45.17582 6.73244 6.76808 -26.4092 -7.32764 2.46194 3.44828
0.001 -0.00104 0.00198 25.26464 -24.28047 -2.65431 46.18308 -1.19038 -4.13621 -15.29892 6.17013 -0.63943 -18.95363 -4.60701 -23.26869 18.51475 100.40732 12.56371 2.08378 -23.21368 7.48261 13.75037 26.87889 -105.87918 17.62679 -1.78998 40.20816 -5.47284 -11.01266 -22.63911 -7.24968 -3.91262 -4.16665 45.54523 6.79695 6.7973 -26.49536 -7.32562 2.43082 3.43868
0.00056 -0.00136 0.00248 25.39741 -24.49231 -2.72249 46.16521 -1.20186 -4.24149 -15.13399 6.2056 -0.6423 -18.77854 -4.7274 -23.31412 18.42747 100.11799 12.52563 2.17126 -22.99709 7.32096 15.13658 26.98641 -109.35376 18.48861 -2.35806 40.51058 -5.43992 -11.07602 -22.7767 -7.25495 -3.91982 -4.17113 45.89168 6.85859 6.82932 -26.58518 -7.32314 2.40015 3.4289
0.00031 -0.00157 0.00287 25.51196 -24.68576 -2.77991 46.20003 -1.21672 -4.35247 -15.00206 6.23938 -0.64089 -18.62661 -4.84496 -23.41312 18.30229 99.83542 12.48022 2.26986 -22.78938 7.0071 17.06522 27.03895 -113.76669 19.59143 -3.07599 40.75151 -5.38492 -11.03607 -22.85203 -7.2678 -3.93367 -4.17907 46.16501 6.91243 6.87051 -26.62212 -7.31788 2.37022 3.42008
-0.00039 -0.00202 0.00355 25.67178 -24.92832 -2.86396 46.12281 -1.22494 -4.45716 -14.79236 6.277 -0.64848 -18.41519 -4.97259 -23.40376 18.25543 99.52196 12.44794 2.3494 -22.54872 6.9955 17.95128 27.21483 -116.441 20.24713 -3.51603 41.13823 -5.372 -11.20541 -23.06456 -7.26738 -3.93578 -4.18071 46.61133 6.98536 6.89074 -26.77524 -7.31887 2.33833 3.40917
-0.00235 -0.00305 0.00499 25.94439 -25.30252 -3.01732 45.74539 -1.21345 -4.54593 -14.36731 6.32966 -0.68146 -18.05335 -5.11941 -23.10667 18.42638 99.14362 12.45894 2.37408 -22.25792 7.86042 15.73954 27.75275 -113.89169 19.56584 -3.12123 41.91137 -5.49336 -12.02521 -23.63984 -7.2223 -3.89816 -4.16132 47.51576 7.10796 6.86199 -27.23115 -7.3375 2.30177 3.39259
-0.00475 -0.00432 0.00673 26.26251 -25.72267 -3.19682 45.25402 -1.19547 -4.62577 -13.86803 6.38485 -0.72333 -17.63259 -5.27667 -22.69676 18.67624 98.73601 12.48233 2.37853 -21.93077 9.02662 12.49018 28.40652 -109.59699 18.43439 -2.44751 42.82788 -5.65519 -13.04431 -24.35441 -7.16454 -3.84944 -4.13598 48.59066 7.24978 6.8123 -27.80605 -7.36213 2.26319 3.37385
-0.00694 -0.00549 0.00834 26.56328 -26.11637 -3.36428 44.80949 -1.18112 -4.70441 -13.40984 6.43553 -0.76063 -17.23731 -5.43202 -22.32733 18.88939 98.33971 12.49653 2.39069 -21.60107 10.03674 9.80456 28.98442 -106.23762 17.53966 -1.92333 43.67712 -5.7878 -13.9224 -25.01092 -7.11681 -3.80976 -4.11545 49.58609 7.38332 6.76922 -28.33492 -7.38338 2.22526 3.35602
-0.00921 -0.00663 0.00993 26.85114 -26.5358 -3.53307 44.38515 -1.16381 -4.80662 -12.91769 6.50127 -0.80016 -16.84656 -5.57567 -22.00376 19.10565 97.94953 12.52567 2.40965 -21.34873 11.12584 6.74301 29.66199 -102.3134 16.51822 -1.30849 44.53853 -5.96359 -15.00589 -25.64463 -7.0521 -3.75398 -4.08644 50.59339 7.51501 6.73781 -28.82946 -7.40757 2.18843 3.33854
